<?xml version="1.0" standalone="no"?>
<!DOCTYPE svg PUBLIC "-//W3C//DTD SVG 20010904//EN"
 "http://www.w3.org/TR/2001/REC-SVG-20010904/DTD/svg10.dtd">
<svg version="1.0" xmlns="http://www.w3.org/2000/svg"
 width="3993.000000pt" height="3508.000000pt" viewBox="0 0 3993.000000 3508.000000"
 preserveAspectRatio="xMidYMid meet">

<g transform="translate(0.000000,3508.000000) scale(0.100000,-0.100000)"
fill="#fff" stroke="none">
<path d="M19790 29664 c-25 -2 -103 -8 -175 -14 -764 -61 -1547 -270 -2260
-603 -1299 -607 -2377 -1643 -3031 -2912 -101 -195 -191 -394 -261 -575 -25
-63 -50 -120 -56 -126 -7 -6 -124 -48 -262 -93 -708 -234 -1420 -538 -1930
-824 -201 -113 -272 -214 -246 -346 23 -112 93 -189 199 -216 81 -21 89 -20
417 70 373 102 811 211 1190 294 176 39 329 73 341 76 l21 5 -19 -98 c-61
-324 -82 -585 -83 -1007 0 -355 9 -505 45 -795 217 -1719 1149 -3315 2545
-4358 144 -108 293 -210 406 -279 125 -77 227 -99 321 -71 95 28 191 165 190
271 -1 97 -23 127 -292 396 -392 390 -648 720 -900 1160 -656 1143 -898 2479
-684 3784 65 400 186 822 339 1189 l36 87 52 6 c86 9 445 34 717 50 1018 58
2111 42 3090 -46 2333 -208 4343 -793 5593 -1629 688 -460 1111 -973 1247
-1514 73 -292 63 -576 -32 -845 -40 -116 -142 -314 -224 -436 -433 -649 -1333
-1314 -2484 -1834 -225 -102 -327 -160 -395 -226 -63 -61 -79 -105 -72 -190
12 -151 118 -245 277 -245 70 0 145 21 433 121 1251 437 2317 987 3067 1583
701 557 1141 1129 1344 1747 82 249 118 471 118 729 0 576 -203 1101 -631
1630 -111 137 -414 441 -566 566 -552 456 -1270 858 -2105 1178 -1221 470
-2674 770 -4250 880 -465 33 -693 40 -1280 40 -693 0 -1041 -15 -1685 -74
-396 -37 -1041 -120 -1350 -174 -44 -8 -81 -13 -83 -11 -8 8 266 322 402 463
907 932 2088 1533 3380 1722 476 69 1037 78 1511 24 1105 -126 2184 -562 3005
-1214 153 -121 220 -159 295 -167 134 -14 295 135 295 274 0 111 -91 232 -439
586 -1126 1144 -2502 1809 -4081 1973 -146 15 -878 28 -1000 18z"/>
<path d="M21513 19329 c-23 -4 -52 -13 -65 -20 -55 -29 -1277 -733 -1310 -755
l-38 -24 0 -2430 0 -2430 733 0 c818 0 791 -2 865 69 21 20 47 55 57 76 20 39
20 80 23 2684 1 1748 -1 2656 -8 2681 -29 109 -138 173 -257 149z"/>
<path d="M19148 17987 c-278 -161 -524 -307 -546 -324 -23 -19 -52 -57 -69
-90 l-28 -58 0 -1872 0 -1872 21 -27 c11 -15 33 -37 48 -48 27 -21 40 -21 557
-24 l529 -3 0 2306 c0 1268 -1 2305 -2 2305 -2 0 -231 -132 -510 -293z"/>
<path d="M6360 11211 c-257 -107 -443 -206 -635 -340 -191 -133 -267 -223
-294 -351 -9 -41 -11 -654 -9 -2474 l3 -2419 85 -29 c199 -67 467 -123 771
-159 155 -19 237 -23 519 -23 225 -1 365 3 425 12 675 97 1163 375 1476 841
166 246 273 531 326 861 25 161 25 629 0 810 -100 713 -412 1187 -928 1411
-223 97 -432 139 -729 146 -306 8 -564 -31 -783 -119 l-87 -35 0 958 c0 761
-3 959 -12 958 -7 0 -65 -22 -128 -48z m978 -2632 c135 -31 223 -80 328 -184
79 -79 97 -103 141 -195 95 -193 126 -359 126 -665 0 -303 -38 -503 -133 -704
-60 -126 -117 -206 -201 -287 -117 -110 -254 -185 -415 -226 -81 -21 -111 -23
-334 -22 -178 1 -259 5 -295 15 l-50 14 -3 1082 -2 1082 47 21 c197 88 567
120 791 69z"/>
<path d="M19535 11214 c-176 -73 -329 -148 -466 -231 -151 -90 -323 -216 -374
-275 -52 -60 -93 -150 -105 -233 -5 -39 -10 -282 -10 -552 l0 -482 -32 10
c-141 41 -552 62 -770 40 -152 -16 -330 -53 -463 -96 -144 -47 -387 -168 -500
-250 -438 -316 -700 -795 -771 -1413 -20 -172 -14 -552 10 -712 39 -246 97
-433 197 -635 88 -179 176 -302 314 -440 134 -134 258 -224 430 -310 315 -158
639 -225 1090 -225 530 0 1045 74 1510 218 l60 18 3 2807 c1 1544 -1 2807 -5
2807 -5 -1 -57 -21 -118 -46z m-1070 -2606 l110 -23 3 -1121 2 -1120 -72 -17
c-40 -9 -104 -21 -143 -27 -105 -14 -357 -12 -460 5 -406 66 -654 329 -737
784 -32 173 -31 532 1 716 29 166 61 266 122 385 127 248 326 387 624 436 122
20 410 11 550 -18z"/>
<path d="M13420 9514 c-19 -2 -91 -9 -160 -15 -185 -16 -628 -93 -647 -113
-12 -11 -33 -138 -44 -265 -10 -104 -10 -165 0 -285 11 -144 32 -280 43 -292
3 -3 73 8 154 25 268 54 530 81 787 81 244 0 412 -30 555 -101 193 -94 296
-266 309 -511 5 -97 4 -108 -11 -108 -9 0 -105 7 -214 16 -323 27 -652 8 -922
-52 -745 -166 -1110 -615 -1052 -1292 28 -327 125 -561 311 -755 212 -220 505
-347 956 -414 151 -22 745 -26 920 -5 363 43 693 108 998 197 l58 17 -4 1246
c-3 1360 -2 1315 -62 1555 -125 492 -431 815 -925 971 -133 42 -335 81 -500
96 -104 9 -464 12 -550 4z m750 -2294 c91 -5 184 -12 208 -15 l42 -6 0 -453 0
-454 -77 -11 c-405 -57 -748 -27 -937 84 -61 36 -132 115 -164 183 -25 53 -27
66 -27 197 0 134 1 142 29 200 91 185 314 276 696 284 36 0 139 -4 230 -9z"/>
<path d="M21900 9509 c-420 -42 -798 -210 -1064 -474 -288 -284 -461 -650
-538 -1140 -19 -121 -22 -180 -23 -445 0 -206 4 -334 13 -395 141 -943 670
-1475 1612 -1622 162 -25 686 -25 875 0 273 37 515 96 692 169 l72 29 11 52
c41 201 41 533 0 733 l-11 50 -208 -52 c-217 -55 -443 -96 -620 -114 -136 -13
-413 -13 -526 1 -277 34 -506 145 -645 312 -92 111 -178 314 -205 484 l-7 43
1223 2 1223 3 7 29 c30 113 43 621 20 816 -103 891 -615 1429 -1443 1519 -112
13 -334 12 -458 0z m397 -834 c113 -21 230 -82 308 -160 110 -110 188 -301
202 -497 l6 -88 -742 0 c-621 0 -741 2 -741 14 0 39 54 216 88 289 116 247
291 393 532 442 89 18 252 18 347 0z"/>
<path d="M25620 9513 c-661 -68 -1117 -386 -1247 -869 -24 -88 -27 -117 -27
-269 -1 -192 11 -274 59 -417 45 -136 112 -243 220 -353 168 -170 375 -287
850 -480 336 -137 453 -195 513 -254 74 -72 87 -107 87 -236 0 -103 -2 -113
-30 -163 -72 -131 -210 -189 -476 -199 -333 -13 -674 43 -1078 176 -85 28
-156 49 -158 47 -2 -2 -13 -46 -24 -97 -39 -187 -36 -479 8 -673 l15 -68 82
-38 c193 -90 440 -152 756 -190 142 -18 631 -24 750 -11 280 32 534 115 722
236 92 60 114 78 211 173 225 220 328 507 314 872 -13 348 -101 567 -306 770
-163 161 -318 248 -801 450 -360 150 -453 197 -523 260 -65 58 -86 106 -87
193 0 111 44 183 144 234 86 44 171 56 396 55 296 0 571 -40 872 -126 116 -33
117 -33 122 -12 47 195 38 734 -14 786 -10 10 -55 32 -101 50 -181 70 -472
127 -773 150 -121 9 -398 11 -476 3z"/>
<path d="M29255 9510 c-226 -26 -461 -92 -640 -179 -540 -264 -875 -779 -977
-1501 -20 -144 -17 -623 4 -767 93 -617 348 -1065 764 -1343 319 -213 677
-310 1144 -310 328 0 596 39 853 124 124 41 307 122 307 136 0 3 -21 35 -47
70 -124 171 -249 399 -318 580 -20 52 -37 96 -39 97 -2 2 -63 -17 -137 -41
-185 -62 -275 -76 -493 -76 -147 0 -197 4 -266 20 -351 85 -578 373 -657 835
-23 139 -23 490 1 630 50 295 141 493 291 633 170 159 365 221 664 209 173 -6
311 -32 476 -87 65 -22 122 -40 126 -40 4 0 23 48 44 108 66 191 190 431 300
581 l46 62 -104 49 c-199 94 -403 154 -651 191 -150 23 -558 34 -691 19z"/>
<path d="M32395 9509 c-465 -47 -823 -213 -1116 -516 -287 -297 -458 -699
-515 -1214 -18 -161 -15 -572 6 -709 75 -507 248 -883 540 -1170 274 -270 633
-431 1069 -481 137 -15 503 -6 631 15 383 66 689 211 932 445 333 319 515 736
569 1306 17 174 6 544 -21 718 -145 948 -722 1518 -1629 1607 -118 11 -349 11
-466 -1z m450 -884 c296 -78 470 -308 539 -715 25 -146 39 -398 31 -565 -19
-449 -96 -696 -270 -871 -87 -89 -171 -139 -286 -170 -91 -26 -358 -26 -447
-2 -312 87 -486 346 -541 808 -18 152 -23 381 -12 540 20 281 58 447 142 616
102 207 255 327 474 370 87 17 286 11 370 -11z"/>
<path d="M9937 9460 c-49 -5 -120 -14 -158 -20 l-69 -12 0 -1968 0 -1968 23
-5 c146 -36 712 -45 926 -14 63 9 118 20 122 24 5 5 10 496 12 1093 3 1065 3
1087 24 1178 83 358 246 594 498 718 158 78 214 88 480 88 127 1 242 -3 256
-7 27 -7 27 -7 43 81 39 212 45 536 13 717 l-12 70 -70 13 c-40 8 -146 14
-250 14 -150 1 -197 -2 -283 -21 -285 -60 -502 -192 -703 -427 -40 -46 -75
-84 -79 -84 -3 0 -14 48 -24 108 -19 112 -88 368 -104 384 -32 32 -454 57
-645 38z"/>
</g>
</svg>
